<?xml version="1.0" encoding="UTF-8"?>
<svg version="1.1" xmlns="http://www.w3.org/2000/svg" width="1024" height="1024">
<path d="M0 0 C337.92 0 675.84 0 1024 0 C1024 337.92 1024 675.84 1024 1024 C686.08 1024 348.16 1024 0 1024 C0 686.08 0 348.16 0 0 Z " fill="#F4ECDF" transform="translate(0,0)"/>
<path d="M0 0 C1.21558594 0.43570313 2.43117188 0.87140625 3.68359375 1.3203125 C15.5578123 5.99842228 24.72648933 13.39051849 34 22 C34.66 21.319375 35.32 20.63875 36 19.9375 C44.68218014 11.32827936 53.49720288 5.1522977 64.9375 0.75 C65.56914063 0.5037085 66.20078125 0.25741699 66.8515625 0.00366211 C84.807952 -6.58656958 108.1686696 -6.90707856 126 0 C126.63905273 0.23605957 127.27810547 0.47211914 127.93652344 0.71533203 C149.48537806 8.77666187 168.39658562 24.42583319 179 45 C179.55042969 46.05832031 180.10085938 47.11664063 180.66796875 48.20703125 C188.35902582 63.91197988 191.35894031 80.01717676 191.25 97.375 C191.25773437 98.59960938 191.26546875 99.82421875 191.2734375 101.0859375 C191.17785785 146.19953246 166.41058798 184.65466034 136 216 C135.33742188 216.68449219 134.67484375 217.36898437 133.9921875 218.07421875 C126.86583654 225.40379265 119.73919405 232.55500452 111.68359375 238.875 C109.21915533 240.82646215 106.84420725 242.85668629 104.47583008 244.92285156 C96.42117314 251.91493747 87.80484674 257.99520898 79 264 C78.34708984 264.44762695 77.69417969 264.89525391 77.02148438 265.35644531 C67.89256121 271.59936059 58.57047218 277.45852456 49 283 C48.39816895 283.35288086 47.79633789 283.70576172 47.17626953 284.06933594 C45.43879478 285.08227286 43.68832474 286.072817 41.9375 287.0625 C40.93589844 287.63097656 39.93429687 288.19945312 38.90234375 288.78515625 C35.52745938 290.19779291 33.6281727 290.48375636 30 290 C27.31437669 288.87273729 24.90587896 287.71721694 22.375 286.3125 C21.64498779 285.91603271 20.91497559 285.51956543 20.1628418 285.11108398 C-3.08669614 272.22736345 -24.62340487 255.99447166 -45 239 C-45.50547363 238.58621094 -46.01094727 238.17242187 -46.53173828 237.74609375 C-61.27901809 225.66333316 -75.5092109 212.25787254 -87 197 C-88.07701172 195.63101563 -88.07701172 195.63101563 -89.17578125 194.234375 C-114.55382987 161.44891669 -129.0392635 122.98053477 -124.69970703 81.10205078 C-121.38338435 58.62287499 -111.9008623 39.09389249 -96 23 C-95.42894531 22.35675781 -94.85789062 21.71351563 -94.26953125 21.05078125 C-71.75679139 -3.7768933 -30.80335127 -11.18227634 0 0 Z " fill="#F3ECE0" transform="translate(479,237)"/>
<path d="M0 0 C1.21558594 0.43570313 2.43117188 0.87140625 3.68359375 1.3203125 C15.5578123 5.99842228 24.72648933 13.39051849 34 22 C34.66 21.319375 35.32 20.63875 36 19.9375 C44.68218014 11.32827936 53.49720288 5.1522977 64.9375 0.75 C65.56914063 0.5037085 66.20078125 0.25741699 66.8515625 0.00366211 C84.807952 -6.58656958 108.1686696 -6.90707856 126 0 C126.63905273 0.23605957 127.27810547 0.47211914 127.93652344 0.71533203 C149.48537806 8.77666187 168.39658562 24.42583319 179 45 C179.55042969 46.05832031 180.10085938 47.11664063 180.66796875 48.20703125 C188.35902582 63.91197988 191.35894031 80.01717676 191.25 97.375 C191.25773437 98.59960938 191.26546875 99.82421875 191.2734375 101.0859375 C191.17785785 146.19953246 166.41058798 184.65466034 136 216 C135.33742188 216.68449219 134.67484375 217.36898437 133.9921875 218.07421875 C126.86583654 225.40379265 119.73919405 232.55500452 111.68359375 238.875 C109.21915533 240.82646215 106.84420725 242.85668629 104.47583008 244.92285156 C96.42117314 251.91493747 87.80484674 257.99520898 79 264 C78.34708984 264.44762695 77.69417969 264.89525391 77.02148438 265.35644531 C67.89256121 271.59936059 58.57047218 277.45852456 49 283 C48.39816895 283.35288086 47.79633789 283.70576172 47.17626953 284.06933594 C45.43879478 285.08227286 43.68832474 286.072817 41.9375 287.0625 C40.93589844 287.63097656 39.93429687 288.19945312 38.90234375 288.78515625 C35.52745938 290.19779291 33.6281727 290.48375636 30 290 C27.31437669 288.87273729 24.90587896 287.71721694 22.375 286.3125 C21.64498779 285.91603271 20.91497559 285.51956543 20.1628418 285.11108398 C-3.08669614 272.22736345 -24.62340487 255.99447166 -45 239 C-45.50547363 238.58621094 -46.01094727 238.17242187 -46.53173828 237.74609375 C-61.27901809 225.66333316 -75.5092109 212.25787254 -87 197 C-88.07701172 195.63101563 -88.07701172 195.63101563 -89.17578125 194.234375 C-114.55382987 161.44891669 -129.0392635 122.98053477 -124.69970703 81.10205078 C-121.38338435 58.62287499 -111.9008623 39.09389249 -96 23 C-95.42894531 22.35675781 -94.85789062 21.71351563 -94.26953125 21.05078125 C-71.75679139 -3.7768933 -30.80335127 -11.18227634 0 0 Z M-57 19 C-58.18207031 19.50917969 -59.36414063 20.01835937 -60.58203125 20.54296875 C-68.23857345 24.02016681 -74.76525337 28.37671714 -81 34 C-81.68449219 34.59167969 -82.36898437 35.18335938 -83.07421875 35.79296875 C-93.40750403 45.31420803 -99.57051896 57.88192154 -104 71 C-104.3403125 71.96421875 -104.680625 72.9284375 -105.03125 73.921875 C-109.37859637 88.81556164 -108.62593699 108.05028117 -105 123 C-104.72800781 124.21042969 -104.45601563 125.42085938 -104.17578125 126.66796875 C-99.3282136 146.29786209 -89.31602753 165.06385005 -77 181 C-76.24074219 181.98742187 -75.48148437 182.97484375 -74.69921875 183.9921875 C-50.4548308 214.39456387 -19.88065762 239.12233972 12.9375 259.70361328 C14.32947402 260.57854013 15.71742665 261.45989315 17.1015625 262.34716797 C19.12167394 263.64142008 21.15248206 264.91684971 23.1875 266.1875 C23.78715576 266.57454102 24.38681152 266.96158203 25.00463867 267.36035156 C28.84443859 269.7134444 31.52115979 270.6668102 36 270 C39.1173543 268.69967989 39.1173543 268.69967989 42.25 266.75 C42.84425781 266.3979248 43.43851563 266.04584961 44.05078125 265.68310547 C62.19587733 254.77089805 79.59708614 242.38048723 96 229 C96.56734863 228.53851563 97.13469727 228.07703125 97.71923828 227.6015625 C114.62457784 213.72068261 131.41874761 197.96564683 144 180 C144.41604492 179.41766602 144.83208984 178.83533203 145.26074219 178.23535156 C166.40846862 148.46892907 177.98530771 114.98508638 172.37890625 78.0703125 C168.46739446 58.40533292 155.44947674 38.75909241 139.08691406 27.42456055 C131.79363926 22.59683007 124.42380635 19.44467107 116 17 C114.82179688 16.63648438 113.64359375 16.27296875 112.4296875 15.8984375 C97.0490756 12.170083 78.4075819 13.52286791 64 20 C63.14019531 20.37253906 62.28039062 20.74507813 61.39453125 21.12890625 C53.68266817 24.93838078 45.87923447 31.24382028 42 39 C41.54314952 42.20952094 41.54314952 42.20952094 41.59886169 45.74227905 C41.58866669 46.73970735 41.58866669 46.73970735 41.57826573 47.75728571 C41.55932471 49.9781621 41.56172841 52.19848554 41.56420898 54.41943359 C41.5552295 56.01471158 41.54502081 57.60998305 41.53367615 59.20524597 C41.50719169 63.53382916 41.50014337 67.86223441 41.49822879 72.19089079 C41.49609532 74.89644054 41.48968872 77.60194514 41.48173714 80.30748367 C41.45398918 89.74961466 41.44173097 99.19161865 41.4440918 108.63378906 C41.44589415 117.43004118 41.41423637 126.22574136 41.36686081 135.0218538 C41.32761275 142.57871575 41.31154098 150.13539744 41.31345803 157.69236052 C41.31422234 162.20369795 41.30570503 166.71454474 41.27392387 171.22578049 C41.24484235 175.4695877 41.24466701 179.71243651 41.26647377 183.95627785 C41.2696067 185.51108642 41.26254925 187.06595507 41.2443924 188.62066078 C40.88834102 198.12996365 40.88834102 198.12996365 44.92054749 206.41738892 C49.23051231 210.47811238 53.00345265 210.34825008 58.7734375 210.265625 C68.55124361 209.46067244 75.61921976 204.20960045 82 197 C86.09957689 191.00755627 87.79172132 184.63965345 89.12890625 177.56640625 C90.19247637 174.43292835 91.11086095 173.56305952 94 172 C96.515625 171.41015625 96.515625 171.41015625 99.25 171.0625 C108.91738135 169.47052751 116.48666117 164.80449652 122.54296875 157.015625 C127.65643804 149.27794127 128.29572415 142.08530318 128 133 C127.24074219 133.30679688 126.48148438 133.61359375 125.69921875 133.9296875 C119.19121653 136.51028462 113.00452186 137.87076323 106 137 C104 135 104 135 103.625 132.0625 C104 129 104 129 105.5 127.25 C108.25788351 125.87105825 110.98336842 125.26634886 113.9765625 124.58203125 C119.85120897 122.89221982 123.09084436 119.17183224 126 114 C128.19487114 107.19735303 128.06661606 98.5192428 125.18359375 91.953125 C122.48201684 87.49507729 118.84011728 81.94998724 113.74609375 80.24609375 C112.88177734 80.12427734 112.88177734 80.12427734 112 80 C111.8040625 80.61746094 111.608125 81.23492187 111.40625 81.87109375 C108.04208735 91.39805437 102.23069593 98.57994303 93.390625 103.59765625 C87.67573318 105.9613039 81.68031876 107.40593827 75.66748047 108.82104492 C70.57691837 110.06257008 67.49652419 110.89310999 64 115 C60.3125 115.3125 60.3125 115.3125 57 115 C56 114 56 114 55.5 111.4375 C56.15252936 106.95136068 58.14604655 105.17403958 61.2734375 102.02734375 C65.81851822 96.69047295 65.37759358 90.62192613 65.56640625 83.97460938 C65.79833229 78.20166771 65.79833229 78.20166771 68 76 C71 75.75 71 75.75 74 76 C77.0103245 79.0103245 76.97819673 81.22903621 77.09765625 85.453125 C77.08025391 87.33257812 77.08025391 87.33257812 77.0625 89.25 C77.05347656 90.51328125 77.04445313 91.7765625 77.03515625 93.078125 C77.01775391 94.52445313 77.01775391 94.52445313 77 96 C85.03139233 94.12381409 91.6006283 91.64001831 96.60546875 84.80859375 C100.26323594 78.4254314 101.22412225 72.25442938 100 65 C97.36293851 57.89928856 91.14347888 52.15330398 84.51953125 48.7109375 C82.95443712 48.01921068 81.37690622 47.35452561 79.78515625 46.7265625 C78 46 78 46 77 45 C76.85884839 42.32941149 76.95752893 39.67567762 77 37 C83.87724274 35.14843465 87.94756149 36.75022243 94.109375 40.15625 C100.58540059 44.28690416 104.37983523 48.47986649 107.68701172 55.45922852 C111.65502507 63.82799796 115.80005241 67.5452691 123.78515625 72.09765625 C131.92273794 76.91296887 136.07136071 85.21408212 139 94 C139.22608152 97.12106493 139.18515133 100.24657058 139.1875 103.375 C139.19974609 104.22578125 139.21199219 105.0765625 139.22460938 105.953125 C139.23519511 110.48381978 138.97067961 113.83703825 137 118 C137.26782883 120.67828834 137.82456236 122.64778551 139.0234375 125.0546875 C142.13583837 134.44168853 141.23013855 147.79050214 137.2734375 156.7421875 C135.17704547 160.45910343 132.74722028 163.74454397 130 167 C129.37867188 167.82757813 128.75734375 168.65515625 128.1171875 169.5078125 C122.69785889 175.8870222 115.35948869 179.01552617 107.5 181.375 C102.92908495 182.74212751 102.92908495 182.74212751 99.65625 185.921875 C98.95884696 188.13072624 98.95884696 188.13072624 98.546875 190.47265625 C96.51185971 199.87733407 89.6469416 208.8295497 81.828125 214.1640625 C70.55135856 221.13364354 59.37592553 224.6274301 46 223 C39.24218042 220.95355396 33.60979314 217.15126744 30 211 C26.95468685 204.32373655 26.58590095 198.6969728 26.62890625 191.4140625 C26.61152443 189.16145681 26.59394004 186.90885268 26.57617188 184.65625 C26.56611268 181.13896804 26.56250156 177.62178792 26.56420898 174.10449219 C26.56061971 170.68654728 26.5332089 167.2693697 26.50390625 163.8515625 C26.51208878 162.81270905 26.5202713 161.77385559 26.52870178 160.70352173 C26.44330407 152.24096416 24.59586639 143.87468762 18.67578125 137.44140625 C10.36754691 130.29516273 2.27687872 126.64572277 -8.75 127 C-15.66920152 127.22053232 -15.66920152 127.22053232 -19 125 C-19.4375 121.5625 -19.4375 121.5625 -19 118 C-16.57013463 115.32282009 -14.99852329 114.99980863 -11.3828125 114.53125 C-9.96392283 114.49674914 -8.54425538 114.4876559 -7.125 114.5 C-6.37412109 114.50499512 -5.62324219 114.50999023 -4.84960938 114.51513672 C5.73688619 114.83953272 14.89819623 118.60551553 23.42578125 124.86328125 C24.81150129 126.09756952 24.81150129 126.09756952 26 126 C26.13924919 114.92532113 26.24574751 103.8508518 26.31087303 92.77547455 C26.34213623 87.63222753 26.38451746 82.48958109 26.45263672 77.34667969 C26.51800803 72.37995025 26.55374372 67.4137971 26.56926346 62.44667053 C26.58031796 60.55525138 26.6019054 58.66386246 26.63438034 56.77268982 C27.27435362 45.25284792 27.27435362 45.25284792 23.09448242 34.92041016 C21.55519494 33.30086351 21.55519494 33.30086351 20 32 C19.30777344 31.23429687 18.61554688 30.46859375 17.90234375 29.6796875 C4.95503671 17.78772756 -11.27465995 14.41993168 -28.375 14.5625 C-29.65705322 14.57079834 -30.93910645 14.57909668 -32.26000977 14.58764648 C-41.16529441 14.74716615 -48.77725965 15.35619741 -57 19 Z " fill="#042A41" transform="translate(479,237)"/>
<path d="M0 0 C15.18 0 30.36 0 46 0 C60.66666667 36.66666667 75.33333333 73.33333333 90 110 C99.12111566 87.24202871 99.12111566 87.24202871 108.125 64.4375 C113.61390568 50.45809587 119.1744176 36.50753052 124.75 22.5625 C125.15430237 21.5504953 125.55860474 20.5384906 125.97515869 19.49581909 C127.12306958 16.62311576 128.2722344 13.75091773 129.421875 10.87890625 C129.76916656 10.00968536 130.11645813 9.14046448 130.47427368 8.24490356 C130.79310516 7.4493808 131.11193665 6.65385803 131.44042969 5.83422852 C131.85793488 4.79106224 131.85793488 4.79106224 132.28387451 3.7268219 C132.80778516 2.4634953 133.3883667 1.2232666 134 0 C146.87 0 159.74 0 173 0 C173 2.31 173 4.62 173 7 C172.16855469 7.17015625 171.33710938 7.3403125 170.48046875 7.515625 C169.39378906 7.75796875 168.30710937 8.0003125 167.1875 8.25 C166.10855469 8.48203125 165.02960938 8.7140625 163.91796875 8.953125 C160.50340916 10.1781611 159.75467797 10.87548121 158 14 C157.5558695 17.27467886 157.5558695 17.27467886 157.69140625 21.13671875 C157.7014418 21.90175217 157.71147736 22.66678558 157.72181702 23.45500183 C157.99333566 36.82540652 158.96427824 50.18894372 159.79595947 63.53411865 C160.1227897 68.79511293 160.44151234 74.05660448 160.76040649 79.31808472 C160.93636202 82.22103178 161.11533447 85.12377003 161.29647827 88.02639771 C161.67791727 94.19343009 162.03426326 100.35692428 162.24658203 106.53271484 C162.28135147 107.49537766 162.31612091 108.45804047 162.35194397 109.44987488 C162.40877297 111.15663505 162.45467237 112.86382144 162.48582458 114.57124329 C162.69293358 120.8029349 164.08126095 126.08351665 167.5625 131.375 C171.35793014 133.90528676 175.53984803 134.35310773 180 135 C180 137.64 180 140.28 180 143 C160.53 143 141.06 143 121 143 C121 136 121 136 122 135 C123.91289178 134.70367781 125.83056514 134.43796284 127.75 134.1875 C132.52038622 133.42741468 135.69427158 132.76169096 139 129 C140.03833567 125.88499298 140.0665345 123.95833698 139.94921875 120.70483398 C139.91127197 119.61598404 139.8733252 118.52713409 139.83422852 117.4052887 C139.78580811 116.21837936 139.7373877 115.03147003 139.6875 113.80859375 C139.63972412 112.56822861 139.59194824 111.32786346 139.54272461 110.0499115 C138.97069451 96.05007531 138.07575668 82.07068998 137.13537598 68.09155273 C136.95143955 65.33466251 136.7732249 62.57741284 136.59492493 59.82015324 C136.37914822 56.49576279 136.15815047 53.17172683 135.9375 49.84765625 C135.85830322 48.62699966 135.77910645 47.40634308 135.69750977 46.1486969 C135.58234009 44.45292763 135.58234009 44.45292763 135.46484375 42.72290039 C135.36610962 41.24074791 135.36610962 41.24074791 135.26538086 39.72865295 C135.00926822 37.09529611 134.53710298 34.58817546 134 32 C128.40969081 45.89882281 122.82039253 59.79805182 117.23230076 73.6977663 C114.6376886 80.15148759 112.04274456 86.60507505 109.44702148 93.05834961 C106.9434444 99.28254104 104.44078924 105.5071024 101.93870354 111.73189354 C100.98249978 114.11033672 100.02598372 116.48865436 99.06915474 118.86684608 C97.73221404 122.18995471 96.39637027 125.51350222 95.06079102 128.8371582 C94.66230453 129.8269014 94.26381805 130.81664459 93.85325623 131.83638 C93.49007294 132.74081848 93.12688965 133.64525696 92.75270081 134.57710266 C92.43652581 135.36339208 92.12035082 136.14968149 91.79459476 136.95979786 C91.14737619 138.62159678 90.56395634 140.30813097 90 142 C86.37 142 82.74 142 79 142 C73.64785277 131.08840407 69.01205223 119.90873602 64.39532471 108.67077637 C64.12693787 108.01758423 63.85855103 107.36439209 63.58203125 106.69140625 C63.3057489 106.01887817 63.02946655 105.3463501 62.74481201 104.65344238 C58.83338037 95.14599195 54.84946006 85.66872351 50.875 76.1875 C49.33315574 72.5078869 47.79155825 68.82817043 46.25 65.1484375 C45.88158493 64.26912064 45.51316986 63.38980377 45.1335907 62.48384094 C40.74009149 51.99574113 36.36573845 41.49968526 32 31 C31.16946101 35.48227863 30.7618378 39.86891148 30.51928711 44.41967773 C30.4801268 45.13773087 30.44096649 45.855784 30.40061951 46.59559631 C30.27274493 48.95809176 30.14985551 51.32081458 30.02734375 53.68359375 C29.93927545 55.34303241 29.85102053 57.00246118 29.7625885 58.66188049 C29.57799868 62.14092781 29.39592407 65.62009553 29.21557617 69.09936523 C28.98635572 73.51698582 28.7505763 77.93422674 28.51279354 82.3513937 C28.32892208 85.78232706 28.14883322 89.21345159 27.96978951 92.64463997 C27.88446743 94.27067367 27.79798112 95.89664678 27.71021843 97.52255058 C27.47078899 101.97746472 27.25749325 106.43199015 27.08671188 110.89008713 C27.02837239 112.30963011 26.96079475 113.72882037 26.88447952 115.14751053 C26.77645723 117.19983075 26.70187615 119.25091153 26.63500977 121.30493164 C26.58458023 122.47778214 26.5341507 123.65063263 26.48219299 124.85902405 C27.16556402 129.00429813 28.77000018 130.4102997 32 133 C35.31399598 134.22574355 35.31399598 134.22574355 38.8125 134.8125 C39.97394531 135.04582031 41.13539063 135.27914062 42.33203125 135.51953125 C43.21246094 135.67808594 44.09289062 135.83664062 45 136 C45 138.31 45 140.62 45 143 C29.16 143 13.32 143 -3 143 C-3 140.36 -3 137.72 -3 135 C-2.32453125 134.90203125 -1.6490625 134.8040625 -0.953125 134.703125 C4.59179503 133.80817233 4.59179503 133.80817233 9.5 131.25 C13.14173549 125.78739676 13.42129146 119.93628809 13.78125 113.58203125 C13.83963043 112.66379578 13.89801086 111.7455603 13.9581604 110.79949951 C14.1465611 107.8042583 14.32342226 104.80845944 14.5 101.8125 C14.6281123 99.73750976 14.75686119 97.66255873 14.88623047 95.58764648 C15.26953095 89.3924599 15.63721146 83.19641798 16 77 C16.05305298 76.09612549 16.10610596 75.19225098 16.1607666 74.26098633 C16.56750505 67.31814628 16.97099539 60.37512962 17.35351562 53.4309082 C17.77773789 45.74665695 18.25378827 38.06969004 18.79980469 30.39331055 C19.55005369 21.07434864 19.55005369 21.07434864 18 12 C14.25653694 10.09747216 10.26854616 9.28189915 6.1875 8.375 C5.02605469 8.11460937 3.86460937 7.85421875 2.66796875 7.5859375 C1.78753906 7.39257812 0.90710938 7.19921875 0 7 C0 4.69 0 2.38 0 0 Z " fill="#042B42" transform="translate(132,584)"/>
<path d="M0 0 C0.80308594 0.350625 1.60617187 0.70125 2.43359375 1.0625 C14.90066853 7.28523403 23.67686287 17.98259547 28.4375 30.9375 C32.83865812 46.94171134 30.65293757 63.81680729 22.8125 78.3125 C15.3270795 90.23842419 4.08759649 99.34873313 -9.83203125 102.5625 C-27.02333262 104.9366378 -42.59980218 102.12949832 -57 92 C-66.12970201 84.76449785 -72.35605306 73.50762858 -74 62 C-75.63668745 42.45106796 -73.13625529 28.05179328 -61.8125 11.875 C-46.58289494 -5.30711853 -20.54230388 -8.98541062 0 0 Z " fill="#032A40" transform="translate(665,626)"/>
<path d="M0 0 C5.12608997 3.55213953 8.86154865 7.63847895 12 13 C12.70962891 12.23816406 12.70962891 12.23816406 13.43359375 11.4609375 C22.55420336 1.9669696 31.62077473 -3.96560735 45.0625 -4.375 C54.24003547 -4.06986455 60.29093721 -1.67866793 66.98828125 4.69140625 C75.24368929 14.16508809 76.28766095 25.36852578 76.30496025 37.42148781 C76.30865982 39.49404459 76.32547711 41.56613804 76.34571838 43.63859558 C76.40082693 49.52452001 76.4319283 55.41050695 76.45629883 61.29663086 C76.47215794 64.91106307 76.50234037 68.5251543 76.54106331 72.13941002 C76.55270852 73.51289955 76.55864362 74.88644989 76.55874443 76.25998878 C76.55893614 78.17443167 76.57869359 80.08884254 76.59936523 82.00317383 C76.60443588 83.09157059 76.60950653 84.17996735 76.61473083 85.30134583 C76.78302298 88.0107663 76.78302298 88.0107663 78.3563385 89.82914734 C80.69651075 91.49615536 82.86544294 91.75589127 85.6875 92.1875 C86.68136719 92.34605469 87.67523437 92.50460937 88.69921875 92.66796875 C89.45847656 92.77753906 90.21773437 92.88710938 91 93 C91 95.64 91 98.28 91 101 C74.83 101 58.66 101 42 101 C42 98.69 42 96.38 42 94 C43.06541016 93.58427734 43.06541016 93.58427734 44.15234375 93.16015625 C45.53099609 92.61681641 45.53099609 92.61681641 46.9375 92.0625 C47.85402344 91.70285156 48.77054688 91.34320312 49.71484375 90.97265625 C51.92418533 90.2003782 51.92418533 90.2003782 53 89 C53.1149952 87.0792761 53.15966993 85.15430979 53.17700195 83.23022461 C53.18983719 81.9948143 53.20267242 80.75940399 53.21589661 79.48655701 C53.22406761 78.12515666 53.23151065 76.76375178 53.23828125 75.40234375 C53.24235678 74.7181946 53.2464323 74.03404545 53.25063133 73.32916451 C53.27152333 69.70194931 53.28580644 66.07477219 53.29516602 62.44750977 C53.30618441 58.71399418 53.34052092 54.98108225 53.38033772 51.24777889 C53.40660213 48.36769063 53.4148669 45.48774331 53.41844749 42.60754585 C53.42329512 41.23252896 53.43485681 39.85751758 53.45348549 38.48261833 C53.55404197 30.56303291 53.40811711 24.71551855 49 18 C43.57366987 12.70932813 38.42631548 12.65233918 31.11328125 12.71484375 C25.56426288 13.22309763 21.23729593 15.22216843 16.9065094 18.66355896 C14.35565035 21.78965515 14.51943467 23.64464452 14.55834961 27.64868164 C14.55948761 28.30768967 14.56062561 28.96669769 14.5617981 29.64567566 C14.57135515 31.81789057 14.61067331 33.98833691 14.65234375 36.16015625 C14.66956074 37.67181754 14.68570445 39.18349141 14.70082092 40.69517517 C14.73734339 43.86037675 14.78897507 47.0248929 14.85083008 50.18969727 C14.92862157 54.24737897 14.96561858 58.30425094 14.99094296 62.36255741 C15.01544422 65.48297793 15.0631251 68.60271897 15.11767769 71.7227459 C15.14073132 73.21898168 15.15617451 74.71535466 15.16389275 76.21174812 C15.17783537 78.30263205 15.22332645 80.39052544 15.27709961 82.48071289 C15.29582626 83.66999893 15.31455292 84.85928497 15.33384705 86.08460999 C15.7224786 89.16863801 15.7224786 89.16863801 18.30690002 90.86448669 C21.53038558 92.22363072 24.53004099 92.65980794 28 93 C28 95.64 28 98.28 28 101 C12.49 101 -3.02 101 -19 101 C-19 98.36 -19 95.72 -19 93 C-17.01432292 92.57682292 -15.02864583 92.15364583 -13.04296875 91.73046875 C-10.56148244 90.84320692 -9.60497366 90.09663998 -8 88 C-7.54338347 85.24485926 -7.54338347 85.24485926 -7.61181641 82.07910156 C-7.59763168 80.25140228 -7.59763168 80.25140228 -7.5831604 78.38677979 C-7.58923309 77.06804871 -7.59530579 75.74931763 -7.6015625 74.390625 C-7.59954068 73.02162521 -7.59662834 71.65262648 -7.59286499 70.28363037 C-7.5884407 67.41196455 -7.59487168 64.54057859 -7.60888672 61.66894531 C-7.62591455 58.00269189 -7.61617959 54.33710045 -7.59816933 50.67087173 C-7.58727874 47.8414012 -7.59080292 45.01208499 -7.5985527 42.18260956 C-7.60150731 40.17807077 -7.59244814 38.1735258 -7.5831604 36.16900635 C-7.64046671 25.97796263 -7.64046671 25.97796263 -12.46484375 17.2578125 C-18.61150497 12.52961156 -24.40308123 12.25883719 -32 13 C-35.27271771 13.93797517 -38.11980696 15.18885158 -41 17 C-42.0204541 17.54744873 -43.0409082 18.09489746 -44.09228516 18.65893555 C-46.4898898 20.69946131 -46.9707201 21.84074581 -47.54844666 24.98301697 C-47.74668448 28.93604725 -47.75487786 32.8651271 -47.69140625 36.8203125 C-47.68782737 38.28571203 -47.6864721 39.75111852 -47.6872406 41.21652222 C-47.68255688 44.28167047 -47.65777374 47.34576206 -47.61743164 50.41064453 C-47.5663704 54.33960831 -47.55499162 58.26741568 -47.55726719 62.19667244 C-47.55645171 65.2199101 -47.54000401 68.24289487 -47.51826286 71.26604843 C-47.50871798 72.71491458 -47.50280417 74.16380935 -47.50058174 75.61270523 C-47.49408 77.63530027 -47.46545192 79.65778779 -47.43579102 81.68017578 C-47.42435562 82.83091583 -47.41292023 83.98165588 -47.40113831 85.16726685 C-47.23193796 87.99628429 -47.23193796 87.99628429 -45.62779236 89.83566284 C-43.4617065 91.38503383 -41.37558986 91.98847549 -38.8125 92.6875 C-37.91144531 92.93886719 -37.01039063 93.19023438 -36.08203125 93.44921875 C-35.39496094 93.63097656 -34.70789063 93.81273437 -34 94 C-34 96.31 -34 98.62 -34 101 C-50.17 101 -66.34 101 -83 101 C-83 98.69 -83 96.38 -83 94 C-81.84371094 93.60167969 -81.84371094 93.60167969 -80.6640625 93.1953125 C-79.66117187 92.84210938 -78.65828125 92.48890625 -77.625 92.125 C-76.62726563 91.77695312 -75.62953125 91.42890625 -74.6015625 91.0703125 C-71.89557882 90.15217498 -71.89557882 90.15217498 -70 88 C-69.65008671 84.96693982 -69.65008671 84.96693982 -69.64599609 81.35058594 C-69.6328537 80.66742813 -69.6197113 79.98427032 -69.60617065 79.28041077 C-69.56668744 77.01506116 -69.543375 74.74997699 -69.5234375 72.484375 C-69.51121092 71.32339169 -69.51121092 71.32339169 -69.49873734 70.13895416 C-69.45700454 66.04072637 -69.42840888 61.94263265 -69.40966797 57.84423828 C-69.38755725 53.61551193 -69.31879298 49.38889631 -69.23932457 45.16091537 C-69.18696053 41.90600755 -69.17028209 38.65160086 -69.16310501 35.3963089 C-69.15337721 33.83811465 -69.13015803 32.27994254 -69.09302902 30.72216034 C-68.61230901 22.25215312 -68.61230901 22.25215312 -71.73321533 14.72375488 C-73.77425337 13.15338411 -75.64701573 12.0316846 -78 11 C-78.99 10.54625 -79.98 10.0925 -81 9.625 C-81.66 9.41875 -82.32 9.2125 -83 9 C-83.042721 7.33388095 -83.04063832 5.66617115 -83 4 C-80.23820198 1.23820198 -73.71556667 1.18522114 -70 0.4375 C-68.88753906 0.20353516 -67.77507812 -0.03042969 -66.62890625 -0.27148438 C-60.28656546 -1.55265215 -54.46874965 -2.26724707 -48 -2 C-47.505 5.425 -47.505 5.425 -47 13 C-45.72125 11.63875 -44.4425 10.2775 -43.125 8.875 C-30.89553583 -3.35446417 -16.00916758 -8.27140325 0 0 Z " fill="#052B42" transform="translate(495,626)"/>
<path d="M0 0 C5.8605833 5.36181026 8.58011916 12.02409848 9.1890564 19.97001648 C9.19031525 21.0971254 9.1915741 22.22423431 9.19287109 23.38549805 C9.19983002 24.67340744 9.20678894 25.96131683 9.21395874 27.28825378 C9.2132777 27.96634787 9.21259666 28.64444195 9.21189499 29.34308434 C9.21092212 31.48304556 9.22395751 33.62251497 9.24087524 35.7624054 C9.2869401 41.84132219 9.31177367 47.9201819 9.31835938 53.99926758 C9.32337272 57.72932228 9.34760025 61.45885302 9.38368607 65.18873024 C9.3934766 66.60605538 9.39582002 68.0234526 9.39051437 69.44080162 C9.38344746 71.41978056 9.40281 73.39880048 9.42333984 75.37768555 C9.42618988 76.50240768 9.42903992 77.62712982 9.43197632 78.78593445 C10.05261181 82.34820982 11.03574025 83.57746615 13.9375 85.6875 C17.46072185 85.51753243 17.46072185 85.51753243 20.9375 84.6875 C22.2575 84.6875 23.5775 84.6875 24.9375 84.6875 C24.9375 88.00056572 24.48507211 90.06956232 22.265625 92.57421875 C15.40973662 98.72132167 10.23810037 100.15975594 1.04296875 100.00390625 C-2.9998372 99.59199772 -5.15503698 98.51845084 -8.0625 95.6875 C-10.76761237 92.17085392 -11.19321395 90.03736982 -11.0625 85.6875 C-11.87332031 86.27917969 -12.68414063 86.87085938 -13.51953125 87.48046875 C-24.7753876 95.5633498 -35.71088501 102.12683348 -50.0625 100.6875 C-57.81876418 98.87539661 -62.59443559 95.20342726 -67.0625 88.6875 C-71.06727984 82.22817767 -71.05511718 75.11558524 -70.0625 67.6875 C-66.92410521 58.91426002 -60.36131191 53.48032109 -52.3203125 49.2421875 C-22.61851093 35.6875 -22.61851093 35.6875 -12.0625 35.6875 C-12.25774614 21.1607808 -12.25774614 21.1607808 -19.625 9.1875 C-24.33880463 6.28669715 -28.67812634 6.00719393 -34.0625 6.6875 C-39.32463608 8.11316244 -42.93068498 10.08481538 -46.109375 14.5859375 C-47.2929918 16.67497056 -48.42484942 18.79454582 -49.4921875 20.9453125 C-51.09796123 23.74942483 -52.26604062 25.1114133 -55.0625 26.6875 C-58.1429257 26.56176834 -60.25321208 26.14609649 -62.9375 24.625 C-64.8220743 21.37934427 -64.7225061 18.26306705 -64.0625 14.6875 C-60.97537261 6.84291542 -54.3439214 1.76904533 -46.953125 -1.82421875 C-31.92726887 -8.21936971 -14.32455144 -9.14590811 0 0 Z " fill="#032940" transform="translate(856.0625,628.3125)"/>
<path d="M0 0 C2 2 2 2 2.375 5.4375 C2 9 2 9 0.5625 10.8125 C-1.81800667 11.91566163 -3.69647225 12.38546359 -6.25 12.875 C-11.13266948 13.84346337 -15.22175923 15.72008835 -19 19 C-21.39959823 22.83312444 -21.54542996 26.58542624 -21 31 C-19.2859023 35.69121475 -17.21145807 38.31998123 -13 41 C-10.67467989 41.85084478 -8.41896551 42.43083165 -6 43 C-6.04640625 42.40832031 -6.0928125 41.81664062 -6.140625 41.20703125 C-6.32913124 37.08009105 -6.34491696 34.62596041 -4.3125 30.9375 C-2 29 -2 29 0.5625 28.5 C3.50330799 29.10324266 4.22581561 29.59963288 6 32 C6.484375 35.07421875 6.484375 35.07421875 6.75 38.6875 C7.49691701 45.05595027 8.97355888 47.8742565 13.50390625 52.25390625 C15 54 15 54 15.5625 57.875 C15 61 15 61 13 63 C9.75 63.4375 9.75 63.4375 6 63 C4.57765364 61.73928391 3.15775759 60.47467345 1.78125 59.1640625 C-0.59538184 57.61091274 -2.42912814 57.58805215 -5.25 57.4375 C-14.59720929 56.93087619 -21.33415216 53.59028035 -28.0859375 47.13671875 C-33.24007655 41.38301659 -34.64833252 35.59601763 -35 28 C-43.15511481 32.13192484 -47.03555203 37.38526963 -50 46 C-51.37552812 52.18987654 -49.66665454 57.2728371 -46.70703125 62.765625 C-44.27279299 65.95185905 -41.50397886 67.43529429 -37.890625 69.0625 C-36 70 -36 70 -35 72 C-34.6875 74.9375 -34.6875 74.9375 -35 78 C-37.08872165 80.41006344 -38.58280066 80.91267921 -41.6875 81.5625 C-49.27541281 80.2739865 -54.48291194 74.88590262 -59 69 C-59.66 68.67 -60.32 68.34 -61 68 C-63.96148816 76.51427846 -64.08435641 84.32654885 -60.40625 92.66796875 C-58.01867118 96.62737029 -54.78406645 99.39845431 -51 102 C-50.43410156 102.39316406 -49.86820312 102.78632813 -49.28515625 103.19140625 C-45.06540001 104.68455076 -40.53138377 104.03067871 -36.11132812 103.83398438 C-30.46762758 103.69129273 -30.46762758 103.69129273 -28 105.3203125 C-26.39859366 108.01017471 -26.5635768 109.94503762 -27 113 C-29.23206431 115.84780619 -30.54992999 116.84997666 -34 118 C-36.49105024 118.09635462 -38.94740703 118.1393246 -41.4375 118.125 C-42.75621094 118.12757813 -44.07492187 118.13015625 -45.43359375 118.1328125 C-48.20238454 118.0297031 -50.39077114 117.84082567 -53 117 C-47.66558195 127.22430127 -41.97977229 132.15123569 -31.296875 136.3359375 C-28.7580533 137.18516047 -28.7580533 137.18516047 -25 137 C-24.64808594 136.28714844 -24.29617188 135.57429687 -23.93359375 134.83984375 C-19.76596126 126.75485435 -15.06724836 119.02241612 -6 116 C-2.25 116.125 -2.25 116.125 1 117 C3.1610211 120.24153166 3.64247553 121.23692901 3 125 C0.66026898 127.20603211 -1.80821586 128.87534031 -4.5 130.625 C-9.80874555 135.66830828 -12.29633981 141.71313416 -12.625 149 C-12.2539386 156.80231807 -9.3930958 163.13814336 -3.625 168.4375 C2.03903721 172.76165744 7.92344102 174.35474784 14.86328125 175.375 C17 176 17 176 19 179 C19.54604239 184.24200695 19.54604239 184.24200695 17.8125 186.6484375 C14.60039942 189.04366767 11.35103142 188.64110513 7.46875 188.546875 C-2.6853108 186.94600956 -12.61142618 180.64902374 -18.86328125 172.6015625 C-23.38351518 166.06921616 -25.57405981 159.78155935 -27 152 C-27.73863281 151.85304688 -28.47726562 151.70609375 -29.23828125 151.5546875 C-42.22915356 148.68249972 -53.40333518 142.72750366 -61.25 131.75 C-65.2079209 125.39791442 -68.01629621 118.71601311 -68.3125 111.1875 C-68.67067162 105.15666438 -71.58886246 100.29738875 -74.40625 95.1015625 C-78.29331264 87.53703374 -78.08313676 78.14163714 -76.3515625 69.921875 C-74.04220559 63.01354236 -70.18805876 56.18805876 -65 51 C-64.58582845 48.8576306 -64.19408046 46.71091362 -63.8125 44.5625 C-61.45522285 33.35689267 -55.93310694 24.98676961 -46.6484375 18.30859375 C-42.58458289 15.69791316 -39.10360686 13.82973006 -34.3125 13.0625 C-30.65696857 12.43729567 -29.10694224 11.43473298 -26.625 8.6875 C-19.63932571 1.01128779 -10.15514601 -1.54853751 0 0 Z " fill="#04283F" transform="translate(477,271)"/>
<path d="M0 0 C1.2521168 1.03535524 2.48289145 2.09723619 3.6875 3.1875 C4.21988281 3.65414062 4.75226563 4.12078125 5.30078125 4.6015625 C14.34020222 13.71105651 16.6875 28.13231339 16.6875 40.1875 C-5.4225 40.1875 -27.5325 40.1875 -50.3125 40.1875 C-48.34047865 60.76783231 -48.34047865 60.76783231 -37.3125 77.1875 C-28.19586958 82.97891568 -18.9950079 84.85673601 -8.328125 82.5390625 C-1.32358441 80.22400247 4.46919638 76.40580362 9.6875 71.1875 C11.35367115 71.14686168 13.02138095 71.144779 14.6875 71.1875 C15.3828125 73.40625 15.3828125 73.40625 15.6875 76.1875 C14.4296875 78.46875 14.4296875 78.46875 12.5625 80.6875 C11.9128125 81.46480469 11.263125 82.24210938 10.59375 83.04296875 C5.27405801 89.02762224 0.17908561 93.84587674 -7.3125 96.875 C-8.323125 97.29136719 -9.33375 97.70773437 -10.375 98.13671875 C-21.98994266 102.29153201 -35.14710081 101.10143871 -46.3125 96.1875 C-58.72061658 89.38418608 -65.93839194 79.48669274 -70.28125 66.23046875 C-74.70857021 49.93547076 -73.20877316 33.54167217 -65.625 18.4375 C-59.08218872 7.31472082 -49.9132652 -1.26652753 -37.6875 -5.75 C-24.76360274 -9.04796421 -11.0117429 -7.72063929 0 0 Z " fill="#042A40" transform="translate(387.3125,628.8125)"/>
<path d="M0 0 C7.4784293 4.50846274 11.60294937 13.07044793 14.05029297 21.19287109 C16.02760996 29.31955388 16.67177921 36.96712918 16.62109375 45.31640625 C16.65106445 47.06824219 16.65106445 47.06824219 16.68164062 48.85546875 C16.67488274 61.04668469 14.35678467 71.47657415 5.609375 80.28125 C0.20709452 84.81359804 -5.3920404 87.09592119 -12.49609375 86.6875 C-20.48815042 85.40930912 -25.97911373 82.21554457 -31.06640625 75.91796875 C-41.19395428 60.86228351 -43.07726761 39.84598793 -40.50732422 22.19335938 C-38.87270148 14.10166368 -35.41886533 6.8010005 -28.7578125 1.7578125 C-19.7740668 -4.06101729 -9.78422844 -4.4929177 0 0 Z " fill="#F3EBDF" transform="translate(654.81640625,633.68359375)"/>
<path d="M0 0 C3.69377796 2.26149671 5.21356297 3.95525351 7.0625 7.875 C7.73461203 11.7701947 7.42805768 15.0092055 5.875 18.6875 C3.04508807 22.10291096 0.65469875 23.70968975 -3.796875 24.171875 C-7.58546899 23.8137492 -8.97507779 22.71421839 -11.875 20.3125 C-15.80335373 17.42142711 -15.80335373 17.42142711 -20.5625 16.5 C-26.92323816 19.09141184 -31.72149759 23.55789001 -35.07807922 29.57678223 C-36.92927872 34.52716242 -36.50337406 39.88849658 -36.46875 45.10546875 C-36.4725769 46.37344803 -36.47640381 47.64142731 -36.48034668 48.9478302 C-36.48306235 51.62032396 -36.47775691 54.29134147 -36.45898438 56.96362305 C-36.43612507 60.38363968 -36.44937516 63.80240535 -36.47327423 67.22237682 C-36.49121358 70.49595226 -36.47865248 73.76937701 -36.46875 77.04296875 C-36.47684692 78.26904343 -36.48494385 79.4951181 -36.49328613 80.75834656 C-36.48067749 81.89665421 -36.46806885 83.03496185 -36.45507812 84.20776367 C-36.45189575 85.20813156 -36.44871338 86.20849945 -36.44543457 87.23918152 C-35.79687736 90.6047313 -34.59090711 91.76910316 -31.9375 93.875 C-28.92061641 94.98977169 -28.92061641 94.98977169 -25.6875 95.625 C-24.60984375 95.86734375 -23.5321875 96.1096875 -22.421875 96.359375 C-21.60203125 96.52953125 -20.7821875 96.6996875 -19.9375 96.875 C-19.9375 99.185 -19.9375 101.495 -19.9375 103.875 C-36.7675 103.875 -53.5975 103.875 -70.9375 103.875 C-70.9375 101.235 -70.9375 98.595 -70.9375 95.875 C-68.984375 95.484375 -67.03125 95.09375 -65.078125 94.703125 C-62.18742061 93.5848233 -60.88063702 92.29812734 -58.9375 89.875 C-58.33176089 86.72740661 -58.33176089 86.72740661 -58.41992188 83.16625977 C-58.4129126 82.50071075 -58.40590332 81.83516174 -58.39868164 81.14944458 C-58.38111144 78.95467092 -58.39272061 76.76119247 -58.40625 74.56640625 C-58.40355444 73.03710178 -58.39967149 71.50779898 -58.39465332 69.97850037 C-58.38875939 66.77480741 -58.3973161 63.57156092 -58.41601562 60.36791992 C-58.4387865 56.26753655 -58.4256943 52.16820155 -58.40172577 48.06785679 C-58.38724808 44.90988821 -58.391883 41.75216676 -58.40223694 38.5941906 C-58.40489981 37.08276177 -58.40164989 35.57131029 -58.39231873 34.05990791 C-58.38212195 31.94371567 -58.39769488 29.82920242 -58.41992188 27.71313477 C-58.42310425 26.51052505 -58.42628662 25.30791534 -58.42956543 24.06886292 C-59.03714871 20.24841473 -60.26485366 18.6188894 -62.9375 15.875 C-65.24810787 14.26007314 -65.24810787 14.26007314 -67.6875 13.0625 C-68.48671875 12.64355469 -69.2859375 12.22460938 -70.109375 11.79296875 C-70.71265625 11.49003906 -71.3159375 11.18710937 -71.9375 10.875 C-71.6075 9.225 -71.2775 7.575 -70.9375 5.875 C-66.7505386 5.05970819 -62.56283997 4.24826582 -58.375 3.4375 C-56.60286133 3.09235352 -56.60286133 3.09235352 -54.79492188 2.74023438 C-53.06918945 2.40668945 -53.06918945 2.40668945 -51.30859375 2.06640625 C-49.7296936 1.76005249 -49.7296936 1.76005249 -48.11889648 1.44750977 C-44.73914624 0.83930515 -41.33702528 0.36064647 -37.9375 -0.125 C-37.4425 9.28 -37.4425 9.28 -36.9375 18.875 C-35.6175 17.01875 -34.2975 15.1625 -32.9375 13.25 C-24.93575242 2.36247221 -13.90950144 -5.07711824 0 0 Z " fill="#042A41" transform="translate(773.9375,623.125)"/>
<path d="M0 0 C2 2 2 2 2.1953125 5.9140625 C2.18200376 7.48449351 2.15813602 9.05486221 2.125 10.625 C2.11597656 11.42679688 2.10695313 12.22859375 2.09765625 13.0546875 C2.07406223 15.03658523 2.03819065 17.01832981 2 19 C1.360625 19.12375 0.72125 19.2475 0.0625 19.375 C-0.618125 19.58125 -1.29875 19.7875 -2 20 C-2.33 20.66 -2.66 21.32 -3 22 C-5.5625 22.625 -5.5625 22.625 -8 23 C-7.505 24.485 -7.505 24.485 -7 26 C-7.45703125 27.9765625 -7.45703125 27.9765625 -9 30 C-11.56597182 31.27281501 -14.02743484 32.34935002 -16.6875 33.375 C-23.24169744 36.06724026 -29.10496987 38.55299496 -33.13671875 44.74609375 C-35.09316832 49.85410914 -34.62011224 55.64843141 -34 61 C-32.65639919 63.9300833 -31.56377639 64.91320527 -29 67 C-23.11981331 68.96006223 -17.00309571 68.00051595 -11 67 C-11.33 67.66 -11.66 68.32 -12 69 C-10.576875 68.690625 -10.576875 68.690625 -9.125 68.375 C-7.578125 68.189375 -7.578125 68.189375 -6 68 C-5.01 68.99 -5.01 68.99 -4 70 C-2.68 69.01 -1.36 68.02 0 67 C-2.6792969 73.9814822 -11.43555502 77.40960853 -17.875 80.375 C-25.78957236 83.64133145 -33.999277 84.33342473 -42.1875 81.5 C-48.7279382 78.58971067 -52.24836941 73.82521064 -55.9375 67.875 C-58.27593688 61.407298 -58.26889915 53.54714989 -55.96875 47.1171875 C-45.82010669 28.68048549 -19.64457914 23.48779689 -1 18 C-0.34 18 0.32 18 1 18 C0.505 9.09 0.505 9.09 0 0 Z " fill="#042940" transform="translate(843,646)"/>
<path d="M0 0 C0.24857661 4.57113264 0.42922838 9.13828498 0.54931641 13.71459961 C0.59939063 15.26803117 0.66748156 16.82099631 0.75439453 18.37280273 C1.45642097 31.23640477 1.45642097 31.23640477 -2.10791016 35.55249023 C-4.68289866 37.38962627 -7.09778915 38.7524825 -10 40 C-10.82580566 40.35956787 -11.65161133 40.71913574 -12.50244141 41.08959961 C-17.38801554 43.0412443 -21.78282034 43.52171797 -27 43 C-31.15688666 41.20498076 -33.49437667 38.73772737 -36 35 C-36.9512827 29.01950947 -36.89646556 23.09175297 -34.5 17.5 C-27.3005093 10.3005093 -19.4412103 6.72159336 -10 3 C-9.13890625 2.65582031 -8.2778125 2.31164062 -7.390625 1.95703125 C-2.3556338 0 -2.3556338 0 0 0 Z " fill="#F2EBE0" transform="translate(844,672)"/>
<path d="M0 0 C5.61124878 5.32349243 8.59841303 10.77028694 10.4375 18.3125 C10.4375 20.9525 10.4375 23.5925 10.4375 26.3125 C-3.7525 26.3125 -17.9425 26.3125 -32.5625 26.3125 C-32.5625 17.86380452 -31.40810538 11.70110838 -26.25 4.9375 C-18.86813459 -2.27269412 -9.70990345 -4.59942795 0 0 Z " fill="#F4EDE1" transform="translate(371.5625,633.6875)"/>
<path d="M0 0 C0.51304687 0.37125 1.02609375 0.7425 1.5546875 1.125 C2.3796875 1.7025 3.2046875 2.28 4.0546875 2.875 C6.41093332 6.40936873 6.02818394 8.93117439 5.5546875 13.125 C1.8173019 15.6165904 -0.01862833 15.58293285 -4.4453125 15.125 C-5.2290625 14.465 -6.0128125 13.805 -6.8203125 13.125 C-10.11388853 10.61560874 -12.16909066 10.47681391 -16.2265625 10.6796875 C-20.21132088 11.47944534 -21.7627137 13.04982577 -24.4453125 16.125 C-25.18917318 18.43488315 -25.86721953 20.76815944 -26.4453125 23.125 C-29.4453125 25.125 -29.4453125 25.125 -32.4453125 24.9375 C-36.93813547 23.72069378 -36.93813547 23.72069378 -38.4453125 21.125 C-39.24515352 15.2261725 -38.32447899 11.80863738 -34.9296875 6.9453125 C-26.59951542 -3.27010905 -11.72659619 -7.24733842 0 0 Z " fill="#05283E" transform="translate(573.4453125,382.875)"/>
<path d="M0 0 C0.33 0 0.66 0 1 0 C1.00142502 0.80766312 1.00285004 1.61532623 1.00431824 2.44746399 C1.02214005 10.05510426 1.06372774 17.66206571 1.13209057 25.26940632 C1.16639762 29.18057756 1.19147618 33.0913567 1.19555664 37.00268555 C1.19983187 40.77669 1.22822774 44.5498094 1.27343178 48.32353783 C1.28643204 49.76399774 1.29070547 51.20456345 1.28615379 52.64507484 C1.28126697 54.66100125 1.31014503 56.67692432 1.34057617 58.69262695 C1.34723801 59.84068314 1.35389984 60.98873932 1.36076355 62.17158508 C1.73188377 65.1775485 1.73188377 65.1775485 4.30293274 66.85124207 C7.5283738 68.22504948 10.52294624 68.65911238 14 69 C14 71.64 14 74.28 14 77 C-1.51 77 -17.02 77 -33 77 C-33 74.69 -33 72.38 -33 70 C-32.34 70 -31.68 70 -31 70 C-31 71.65 -31 73.3 -31 75 C-16.81 75 -2.62 75 12 75 C12 73.68 12 72.36 12 71 C11.09507812 70.87044922 11.09507812 70.87044922 10.171875 70.73828125 C9.37265625 70.59777344 8.5734375 70.45726562 7.75 70.3125 C6.96109375 70.18488281 6.1721875 70.05726563 5.359375 69.92578125 C2.06947298 68.63487599 0.9346156 66.93496671 -1 64 C-1.4430542 60.96903992 -1.4430542 60.96903992 -1.36230469 57.55737305 C-1.34198181 56.27642258 -1.32165894 54.99547211 -1.30072021 53.67570496 C-1.25821007 52.28769606 -1.21525121 50.89970085 -1.171875 49.51171875 C-1.14195534 48.08400536 -1.11384423 46.65625301 -1.08746338 45.22846985 C-1.01338653 41.48129863 -0.91482873 37.73516038 -0.81109619 33.9887085 C-0.709483 30.16141352 -0.63112211 26.33364951 -0.55078125 22.50585938 C-0.38989285 15.00325582 -0.20312919 7.5015914 0 0 Z " fill="#394855" transform="translate(509,650)"/>
<path d="M0 0 C0.99 0 1.98 0 3 0 C3 21.45 3 42.9 3 65 C2.01 65 1.02 65 0 65 C0 43.55 0 22.1 0 0 Z " fill="#E3E2DB" transform="translate(447,649)"/>
<path d="M0 0 C0 2.64 0 5.28 0 8 C-16.17 8 -32.34 8 -49 8 C-49 5.69 -49 3.38 -49 1 C-47.02 1.99 -47.02 1.99 -45 3 C-45.33 3.66 -45.66 4.32 -46 5 C-32.47 4.67 -18.94 4.34 -5 4 C-5.99 3.01 -6.98 2.02 -8 1 C-5.07175348 0.02391783 -3.04386724 -0.08226668 0 0 Z " fill="#273442" transform="translate(586,719)"/>
<path d="M0 0 C2.31 0 4.62 0 7 0 C7 2.64 7 5.28 7 8 C-12.47 8 -31.94 8 -52 8 C-52 5.69 -52 3.38 -52 1 C-50.02 1 -48.04 1 -46 1 C-47.32 1.33 -48.64 1.66 -50 2 C-50 3.32 -50 4.64 -50 6 C-31.52 6 -13.04 6 6 6 C6 4.68 6 3.36 6 2 C4.02 1.67 2.04 1.34 0 1 C0 0.67 0 0.34 0 0 Z " fill="#232F3E" transform="translate(305,719)"/>
<path d="M0 0 C3.3 0.33 6.6 0.66 10 1 C10 3.31 10 5.62 10 8 C-5.84 8 -21.68 8 -38 8 C-38 5.69 -38 3.38 -38 1 C-37.01 1.33 -36.02 1.66 -35 2 C-35.66 2 -36.32 2 -37 2 C-37 3.32 -37 4.64 -37 6 C-22.15 6 -7.3 6 8 6 C8 4.68 8 3.36 8 2 C7.05125 2.04125 6.1025 2.0825 5.125 2.125 C2 2 2 2 0 0 Z " fill="#202D3A" transform="translate(167,719)"/>
<path d="M0 0 C15.18 0 30.36 0 46 0 C46.495 3.465 46.495 3.465 47 7 C45 4 45 4 45 2 C30.81 2 16.62 2 2 2 C2 3.32 2 4.64 2 6 C3.98 6 5.96 6 8 6 C8 6.33 8 6.66 8 7 C5.36 7 2.72 7 0 7 C0 4.69 0 2.38 0 0 Z " fill="#172537" transform="translate(132,584)"/>
<path d="M0 0 C0.99 0 1.98 0 3 0 C2.86089513 3.58362776 2.71254587 7.16681498 2.5625 10.75 C2.50352539 12.27367187 2.50352539 12.27367187 2.44335938 13.828125 C2.40146484 14.8078125 2.35957031 15.7875 2.31640625 16.796875 C2.27974854 17.69760742 2.24309082 18.59833984 2.20532227 19.52636719 C2.01693593 21.79596339 1.62633499 23.81562887 1 26 C1.66 26 2.32 26 3 26 C3 30.29 3 34.58 3 39 C2.01 39 1.02 39 0 39 C-0.60137983 29.3134892 -1.1011636 19.64487564 -1.125 9.9375 C-1.12951172 9.17066895 -1.13402344 8.40383789 -1.13867188 7.61376953 C-1.12404151 2.24808302 -1.12404151 2.24808302 0 0 Z " fill="#E6E5DE" transform="translate(290,596)"/>
<path d="M0 0 C0.33 0 0.66 0 1 0 C0.9063058 4.62681758 0.80017713 9.2531217 0.68261719 13.87939453 C0.64438171 15.45255765 0.60951934 17.02580658 0.578125 18.59912109 C0.53235578 20.86326723 0.47438239 23.12682547 0.4140625 25.390625 C0.40251129 26.09181458 0.39096008 26.79300415 0.37905884 27.51544189 C0.26960094 31.1533497 -0.01844344 33.8990378 -2 37 C-5.17734618 25.9222685 -4.25966359 10.59844869 0 0 Z " fill="#DDE2E2" transform="translate(617,647)"/>
<path d="M0 0 C12.87 0 25.74 0 39 0 C39 2.31 39 4.62 39 7 C37.02 7 35.04 7 33 7 C34.32 6.67 35.64 6.34 37 6 C37 4.68 37 3.36 37 2 C24.79 2 12.58 2 0 2 C0 1.34 0 0.68 0 0 Z " fill="#172536" transform="translate(266,584)"/>
<path d="M0 0 C0.33 0 0.66 0 1 0 C2.60843394 14.99122897 3.51601124 29.93142315 4 45 C3.01 45.495 3.01 45.495 2 46 C1.94465088 45.06615479 1.88930176 44.13230957 1.83227539 43.17016602 C1.62537775 39.7166332 1.41433508 36.2634064 1.20043945 32.81030273 C1.10859593 31.31365975 1.01842231 29.81691333 0.92993164 28.32006836 C0.80269731 26.17272239 0.66952801 24.02581589 0.53515625 21.87890625 C0.456604 20.5854126 0.37805176 19.29191895 0.29711914 17.95922852 C0.32695477 15.11597878 0.32695477 15.11597878 -1 14 C-1.04063832 12.33382885 -1.042721 10.66611905 -1 9 C-1.66 8.67 -2.32 8.34 -3 8 C-2.01 5.36 -1.02 2.72 0 0 Z " fill="#E7EAE7" transform="translate(266,613)"/>
<path d="M0 0 C2.31 0.33 4.62 0.66 7 1 C7.33 1.99 7.66 2.98 8 4 C27.8 4.495 27.8 4.495 48 5 C48 4.34 48 3.68 48 3 C47.01 2.67 46.02 2.34 45 2 C46.32 2 47.64 2 49 2 C49 3.32 49 4.64 49 6 C33.16 6 17.32 6 1 6 C0.67 4.02 0.34 2.04 0 0 Z " fill="#0E3B51" transform="translate(703,719)"/>
<path d="M0 0 C2 2 2 2 2.1953125 5.9140625 C2.18200376 7.48449351 2.15813602 9.05486221 2.125 10.625 C2.11597656 11.42679688 2.10695313 12.22859375 2.09765625 13.0546875 C2.07406223 15.03658523 2.03819065 17.01832981 2 19 C1.360625 19.12375 0.72125 19.2475 0.0625 19.375 C-0.618125 19.58125 -1.29875 19.7875 -2 20 C-2.33 20.66 -2.66 21.32 -3 22 C-5.5625 22.625 -5.5625 22.625 -8 23 C-7.67 23.99 -7.34 24.98 -7 26 C-7.5625 28.125 -7.5625 28.125 -9 30 C-12.125 30.75 -12.125 30.75 -15 31 C-13 29 -13 29 -10 28 C-10.33 26.68 -10.66 25.36 -11 24 C-12.98 24.33 -14.96 24.66 -17 25 C-16 23 -16 23 -12.69140625 21.7109375 C-11.31762852 21.25789732 -9.94117319 20.81291651 -8.5625 20.375 C-7.52125977 20.03082031 -7.52125977 20.03082031 -6.45898438 19.6796875 C-1.29494513 18 -1.29494513 18 1 18 C0.67 12.06 0.34 6.12 0 0 Z " fill="#0C1425" transform="translate(843,646)"/>
<path d="M0 0 C-0.33 1.98 -0.66 3.96 -1 6 C-16.18 6 -31.36 6 -47 6 C-47 4.68 -47 3.36 -47 2 C-46.01 2.495 -46.01 2.495 -45 3 C-45.33 3.66 -45.66 4.32 -46 5 C-32.47 4.67 -18.94 4.34 -5 4 C-5.99 3.01 -6.98 2.02 -8 1 C-5.07175348 0.02391783 -3.04386724 -0.08226668 0 0 Z " fill="#0E3C52" transform="translate(586,719)"/>
<path d="M0 0 C0 6.6 0 13.2 0 20 C-0.66 20.33 -1.32 20.66 -2 21 C-2 14.73 -2 8.46 -2 2 C-4.64 2.33 -7.28 2.66 -10 3 C-6.26223701 0.50815801 -4.5227786 0 0 0 Z " fill="#05152C" transform="translate(736,623)"/>
<path d="M0 0 C1.65 0 3.3 0 5 0 C6.82926546 3.65853093 6.46878116 7.9960388 6.71875 12.03125 C6.81288062 14.9264801 6.81288062 14.9264801 8 17 C6.68 18.65 5.36 20.3 4 22 C4 15.07 4 8.14 4 1 C2.68 0.67 1.36 0.34 0 0 Z " fill="#FAF8F2" transform="translate(732,622)"/>
<path d="M0 0 C0.33 0 0.66 0 1 0 C1 5.28 1 10.56 1 16 C1.66 16 2.32 16 3 16 C2.67 19.3 2.34 22.6 2 26 C1.01 26 0.02 26 -1 26 C-0.67 17.42 -0.34 8.84 0 0 Z " fill="#2E4658" transform="translate(652,328)"/>
<path d="M0 0 C0.33 0 0.66 0 1 0 C0.67 10.89 0.34 21.78 0 33 C-0.33 33 -0.66 33 -1 33 C-1.22673326 28.62575083 -1.42813881 24.25068728 -1.625 19.875 C-1.68945312 18.6375 -1.75390625 17.4 -1.8203125 16.125 C-1.871875 14.92617188 -1.9234375 13.72734375 -1.9765625 12.4921875 C-2.02893066 11.39245605 -2.08129883 10.29272461 -2.13525391 9.15966797 C-1.99025277 5.77229489 -1.21602659 3.15004841 0 0 Z " fill="#E6E2D9" transform="translate(617,647)"/>
<path d="M0 0 C0.33 0.66 0.66 1.32 1 2 C0.10745308 4.53411564 -0.99514565 6.94166534 -2.08984375 9.39453125 C-3.04399989 12.12595676 -3.00472984 14.1384463 -3 17 C-3.66 17.99 -4.32 18.98 -5 20 C-5.66 20 -6.32 20 -7 20 C-7.33 20.66 -7.66 21.32 -8 22 C-7.37910554 17.00956079 -5.90498961 12.79272252 -4 8.1875 C-3.72671875 7.50751953 -3.4534375 6.82753906 -3.171875 6.12695312 C-1.14553571 1.14553571 -1.14553571 1.14553571 0 0 Z " fill="#0E1F30" transform="translate(243,643)"/>
<path d="M0 0 C0.33 0.66 0.66 1.32 1 2 C-1.4842557 4.55523444 -3.86290411 6.9002939 -6.75 9 C-9.35148596 11.31243196 -9.71611066 12.59332791 -10 16 C-10.66 16 -11.32 16 -12 16 C-12.33 16.66 -12.66 17.32 -13 18 C-12.70035605 12.00712106 -9.95399968 8.27213759 -6 4 C-4.05637737 2.42930722 -2.1790739 1.24518508 0 0 Z " fill="#0C1D2F" transform="translate(800,680)"/>
<path d="M0 0 C0.99 0.33 1.98 0.66 3 1 C2.67 7.6 2.34 14.2 2 21 C1.67 21 1.34 21 1 21 C0.67 19.02 0.34 17.04 0 15 C-0.33 15 -0.66 15 -1 15 C-1.02715383 13.25008666 -1.04646551 11.50005055 -1.0625 9.75 C-1.07410156 8.77546875 -1.08570313 7.8009375 -1.09765625 6.796875 C-1.01195577 4.34241322 -0.70706066 2.33831086 0 0 Z " fill="#C7C9C6" transform="translate(589,661)"/>
<path d="M0 0 C1.03159626 3.09478879 0.97482862 4.52631393 0.5625 7.6875 C0.46066406 8.49574219 0.35882813 9.30398438 0.25390625 10.13671875 C0.17011719 10.75160156 0.08632813 11.36648438 0 12 C-6.14689273 11.63118644 -8.69027374 10.09949571 -13 6 C-12.67 5.34 -12.34 4.68 -12 4 C-11.0925 4.804375 -10.185 5.60875 -9.25 6.4375 C-6.89690092 8.41142671 -5.13061954 9.63877467 -2 10 C-1.855625 8.72125 -1.71125 7.4425 -1.5625 6.125 C-1.29357254 3.74307106 -1.07773654 2.15547309 0 0 Z " fill="#F5F6F3" transform="translate(471,302)"/>
<path d="M0 0 C0.33 0 0.66 0 1 0 C1.0544452 2.20805524 1.09299283 4.41650554 1.125 6.625 C1.14820313 7.85476563 1.17140625 9.08453125 1.1953125 10.3515625 C1.0030428 13.94316041 0.30258556 16.66661175 -1 20 C-1.66 20 -2.32 20 -3 20 C-2.88581333 17.41577541 -2.75907638 14.83320487 -2.625 12.25 C-2.5940625 11.52039063 -2.563125 10.79078125 -2.53125 10.0390625 C-2.3251506 6.26057344 -2.08487157 3.22053332 0 0 Z " fill="#0F344B" transform="translate(546,318)"/>
<path d="M0 0 C0.99 0.33 1.98 0.66 3 1 C-4.11389522 9.6309795 -4.11389522 9.6309795 -9 12 C-7.54718935 6.67302761 -3.91888622 3.63597198 0 0 Z " fill="#071F33" transform="translate(382,261)"/>
<path d="M0 0 C0.99 0 1.98 0 3 0 C3 4.95 3 9.9 3 15 C2.01 15 1.02 15 0 15 C0 10.05 0 5.1 0 0 Z " fill="#133248" transform="translate(400,344)"/>
<path d="M0 0 C0.66 0.33 1.32 0.66 2 1 C-0.97 4.96 -0.97 4.96 -4 9 C-6.97 8.505 -6.97 8.505 -10 8 C-6.97727468 4.74475735 -3.74281699 2.38179263 0 0 Z " fill="#051E30" transform="translate(541,490)"/>
<path d="M0 0 C0 4.59675002 -2.04472103 7.30516398 -4.9375 10.75 C-5.69353516 11.67039062 -5.69353516 11.67039062 -6.46484375 12.609375 C-8 14 -8 14 -11 14 C-10.401875 13.46375 -9.80375 12.9275 -9.1875 12.375 C-6.86194738 10.07015346 -6.86194738 10.07015346 -5.5 7 C-4.00462783 4.00925565 -2.4701656 2.21463123 0 0 Z " fill="#082438" transform="translate(617,424)"/>
<path d="M0 0 C0.66 0.66 1.32 1.32 2 2 C5.09926819 1.67801034 5.09926819 1.67801034 8 1 C8 1.66 8 2.32 8 3 C6.03125 4.5078125 6.03125 4.5078125 3.5 6.125 C2.6646875 6.66382813 1.829375 7.20265625 0.96875 7.7578125 C0.3190625 8.16773438 -0.330625 8.57765625 -1 9 C-0.34 7.35 0.32 5.7 1 4 C0.01 3.67 -0.98 3.34 -2 3 C-1.34 2.01 -0.68 1.02 0 0 Z " fill="#03172C" transform="translate(449,638)"/>
<path d="M0 0 C3.1214778 1.35804554 4.96958229 2.81375855 7.125 5.4375 C7.62257813 6.03433594 8.12015625 6.63117188 8.6328125 7.24609375 C9.82665495 8.77762306 10.9228468 10.3842702 12 12 C11.67 12.99 11.34 13.98 11 15 C10.54109375 14.31292969 10.0821875 13.62585938 9.609375 12.91796875 C8.99578125 12.01691406 8.3821875 11.11585938 7.75 10.1875 C7.14671875 9.29417969 6.5434375 8.40085937 5.921875 7.48046875 C4.10661121 5.1375978 2.36005571 3.73871361 0 2 C0 1.34 0 0.68 0 0 Z " fill="#18212E" transform="translate(603,309)"/>
<path d="M0 0 C0.66 0 1.32 0 2 0 C1.67 2.97 1.34 5.94 1 9 C0.34 9 -0.32 9 -1 9 C-1.33 10.32 -1.66 11.64 -2 13 C-2.19294408 8.17639811 -1.75747614 4.50353262 0 0 Z " fill="#091D2F" transform="translate(403,335)"/>
<path d="M0 0 C2.97 0.495 2.97 0.495 6 1 C5.67 1.66 5.34 2.32 5 3 C5.66 3.66 6.32 4.32 7 5 C6 6 6 6 3.4375 6.0625 C2.2309375 6.0315625 2.2309375 6.0315625 1 6 C0.67 4.02 0.34 2.04 0 0 Z " fill="#05253A" transform="translate(575,718)"/>
<path d="M0 0 C2.46800047 1.15173355 4.04783565 2.04783565 6 4 C6.66 3.67 7.32 3.34 8 3 C8.33 4.98 8.66 6.96 9 9 C8.01 9 7.02 9 6 9 C4.39453125 7.03125 4.39453125 7.03125 2.8125 4.5 C2.28269531 3.6646875 1.75289062 2.829375 1.20703125 1.96875 C0.80871094 1.3190625 0.41039062 0.669375 0 0 Z " fill="#0C2334" transform="translate(657,635)"/>
<path d="M0 0 C0.44730469 0.39832031 0.89460938 0.79664063 1.35546875 1.20703125 C4.74779939 4.17984125 8.01840224 6.8282194 12 9 C11.01 9.33 10.02 9.66 9 10 C5.20259133 7.86395763 2.25932608 5.76554346 0 2 C0 1.34 0 0.68 0 0 Z " fill="#192533" transform="translate(417,366)"/>
<path d="M0 0 C-3 2 -3 2 -6 2 C-6 2.66 -6 3.32 -6 4 C-8.97 3.67 -11.94 3.34 -15 3 C-15 2.67 -15 2.34 -15 2 C-13.43883181 1.66048381 -11.87598662 1.32867456 -10.3125 1 C-9.44238281 0.814375 -8.57226562 0.62875 -7.67578125 0.4375 C-5.06287036 0.01027953 -2.64186962 -0.07616201 0 0 Z " fill="#DFE1DD" transform="translate(568,344)"/>
<path d="M0 0 C-2.90600261 1.25664978 -4.79604584 2 -8 2 C-8 4.31 -8 6.62 -8 9 C-8.33 9 -8.66 9 -9 9 C-9.33 6.36 -9.66 3.72 -10 1 C-3.375 -1.125 -3.375 -1.125 0 0 Z " fill="#CED5D5" transform="translate(420,718)"/>
<path d="M0 0 C2.97 0 5.94 0 9 0 C9 0.99 9 1.98 9 3 C5.7 3 2.4 3 -1 3 C-0.67 2.01 -0.34 1.02 0 0 Z " fill="#E5E3DC" transform="translate(822,634)"/>
<path d="M0 0 C0.99 0.33 1.98 0.66 3 1 C0.46354119 4.10011632 -2.15184135 5.0575938 -6 6 C-7.32 5.67 -8.64 5.34 -10 5 C-7.36 4.34 -4.72 3.68 -2 3 C-2 2.34 -2 1.68 -2 1 C-1.34 0.67 -0.68 0.34 0 0 Z " fill="#0F1E2D" transform="translate(592,414)"/>
<path d="M0 0 C2 1 2 1 3.125 4.25 C3.85463482 7.37700635 4.19234975 9.82622905 4 13 C1.87491756 9.81237635 1.4979837 7.73487777 1 4 C0.34 4 -0.32 4 -1 4 C-0.67 2.68 -0.34 1.36 0 0 Z " fill="#0B1B2C" transform="translate(663,297)"/>
<path d="M0 0 C1.32 0.33 2.64 0.66 4 1 C3.34 2.98 2.68 4.96 2 7 C0.02 7.33 -1.96 7.66 -4 8 C-2 6 -2 6 1 5 C0.67 3.35 0.34 1.7 0 0 Z " fill="#052033" transform="translate(832,669)"/>
<path d="M0 0 C-0.33 1.65 -0.66 3.3 -1 5 C-4.26954202 4.43628586 -5.82575883 3.50037734 -8 1 C-5.07175348 0.02391783 -3.04386724 -0.08226668 0 0 Z " fill="#1C3F52" transform="translate(586,719)"/>
<path d="M0 0 C-0.875 4.75 -0.875 4.75 -2 7 C-2.66 7 -3.32 7 -4 7 C-3.67 5.35 -3.34 3.7 -3 2 C-3.99 1.67 -4.98 1.34 -6 1 C-4 0 -4 0 0 0 Z " fill="#093148" transform="translate(839,668)"/>
<path d="M0 0 C0.99 0.33 1.98 0.66 3 1 C3.71706982 2.98248715 4.38290413 4.98415349 5 7 C5.66 7.66 6.32 8.32 7 9 C6.01 9 5.02 9 4 9 C3.34 7.68 2.68 6.36 2 5 C1.34 5 0.68 5 0 5 C0 3.35 0 1.7 0 0 Z " fill="#E3E4DF" transform="translate(456,356)"/>
<path d="M0 0 C0.33 0.99 0.66 1.98 1 3 C-3.1077065 4.58706842 -4.59232396 5.10191901 -9 4 C-6.03 2.68 -3.06 1.36 0 0 Z " fill="#E1E3DE" transform="translate(420,257)"/>
<path d="M0 0 C1.65 0 3.3 0 5 0 C5 2.31 5 4.62 5 7 C3.35 6.67 1.7 6.34 0 6 C0.99 5.67 1.98 5.34 3 5 C3 3.68 3 2.36 3 1 C2.01 0.67 1.02 0.34 0 0 Z " fill="#252F3B" transform="translate(749,720)"/>
<path d="M0 0 C1.25541557 3.76624671 0.37061958 5.37188934 -1 9 C-1.66 8.67 -2.32 8.34 -3 8 C-3.625 4.9375 -3.625 4.9375 -4 2 C-3.01 2 -2.02 2 -1 2 C-0.67 1.34 -0.34 0.68 0 0 Z " fill="#F2F3EF" transform="translate(224,686)"/>
<path d="M0 0 C0.66 0.33 1.32 0.66 2 1 C0.625 3.5 0.625 3.5 -1 6 C-1.66 6 -2.32 6 -3 6 C-3.66 7.32 -4.32 8.64 -5 10 C-4.49701212 5.59885603 -2.91227269 3.28804981 0 0 Z " fill="#0B1A2B" transform="translate(798,634)"/>
<path d="M0 0 C0.99 0 1.98 0 3 0 C2.34 2.31 1.68 4.62 1 7 C0.34 6.67 -0.32 6.34 -1 6 C-1.042721 4.33388095 -1.04063832 2.66617115 -1 1 C-0.67 0.67 -0.34 0.34 0 0 Z " fill="#0C2639" transform="translate(261,619)"/>
<path d="M0 0 C0.33 0.99 0.66 1.98 1 3 C0 4 0 4 -2.5625 4.0625 C-3.7690625 4.0315625 -3.7690625 4.0315625 -5 4 C-5 3.01 -5 2.02 -5 1 C-3.35 0.67 -1.7 0.34 0 0 Z " fill="#E2E1DB" transform="translate(576,397)"/>
<path d="M0 0 C4.67692308 1.47692308 4.67692308 1.47692308 6.3125 4.125 C6.539375 4.74375 6.76625 5.3625 7 6 C5.02 5.01 3.04 4.02 1 3 C0.67 3.66 0.34 4.32 0 5 C0 3.35 0 1.7 0 0 Z " fill="#E6E9E7" transform="translate(591,317)"/>
<path d="M0 0 C5.53846154 0.61538462 5.53846154 0.61538462 7.875 2.5625 C8.431875 3.2740625 8.431875 3.2740625 9 4 C6.36 3.34 3.72 2.68 1 2 C0.67 2.66 0.34 3.32 0 4 C0 2.68 0 1.36 0 0 Z " fill="#051F31" transform="translate(591,303)"/>
<path d="M0 0 C-0.99 0.495 -0.99 0.495 -2 1 C-2.33 1.99 -2.66 2.98 -3 4 C-3.33 3.34 -3.66 2.68 -4 2 C-5.98 2 -7.96 2 -10 2 C-6.5980513 -0.09350689 -3.94727588 -0.17942163 0 0 Z " fill="#041427" transform="translate(716,628)"/>
<path d="M0 0 C2.35171131 0.59861742 4.6859378 1.26924352 7 2 C7.33 2.66 7.66 3.32 8 4 C5.125 4.125 5.125 4.125 2 4 C1.34 3.34 0.68 2.68 0 2 C0 1.34 0 0.68 0 0 Z " fill="#E7E2DA" transform="translate(608,236)"/>
</svg>
